<?xml version="1.0" standalone="no"?>
<!DOCTYPE svg PUBLIC "-//W3C//DTD SVG 1.1//EN" "http://www.w3.org/Graphics/SVG/1.1/DTD/svg11.dtd">
<svg width="800" height="600" version="1.1" xmlns="http://www.w3.org/2000/svg">
<rect width="800" height="600" x="0" y="0" style="fill:rgb(238,238,238);stroke:none"/>
<rect width="800" height="600" x="0" y="0" style="fill:rgb(255,255,255);stroke:none"/>
<text x="2" y="566" fill="rgb(0,0,0)" font-family="Arial" font-size="12">0</text>
<text x="2" y="498" fill="rgb(0,0,0)" font-family="Arial" font-size="12">10000</text>
<text x="2" y="430" fill="rgb(0,0,0)" font-family="Arial" font-size="12">20000</text>
<text x="2" y="361" fill="rgb(0,0,0)" font-family="Arial" font-size="12">30000</text>
<text x="2" y="293" fill="rgb(0,0,0)" font-family="Arial" font-size="12">40000</text>
<text x="2" y="224" fill="rgb(0,0,0)" font-family="Arial" font-size="12">50000</text>
<text x="2" y="156" fill="rgb(0,0,0)" font-family="Arial" font-size="12">60000</text>
<text x="2" y="87" fill="rgb(0,0,0)" font-family="Arial" font-size="12">70000</text>
<text x="278" y="30" fill="rgb(0,0,0)" font-family="Arial" font-size="12">Quality score distribution over all sequences</text>
<line x1="45" y1="560" x2="790" y2="560" stroke="rgb(0,0,0)" stroke-width="1"/>
<line x1="45" y1="560" x2="45" y2="40" stroke="rgb(0,0,0)" stroke-width="1"/>
<text x="281" y="595" fill="rgb(0,0,0)" font-family="Arial" font-size="12">Mean Sequence Quality (Phred Score)</text>
<text x="51" y="575" fill="rgb(0,0,0)" font-family="Arial" font-size="12">2</text>
<rect width="20" height="520" x="65" y="40" style="fill:rgb(230,230,230);stroke:none"/>
<text x="71" y="575" fill="rgb(0,0,0)" font-family="Arial" font-size="12">3</text>
<text x="91" y="575" fill="rgb(0,0,0)" font-family="Arial" font-size="12">4</text>
<rect width="20" height="520" x="105" y="40" style="fill:rgb(230,230,230);stroke:none"/>
<text x="111" y="575" fill="rgb(0,0,0)" font-family="Arial" font-size="12">5</text>
<text x="131" y="575" fill="rgb(0,0,0)" font-family="Arial" font-size="12">6</text>
<rect width="20" height="520" x="145" y="40" style="fill:rgb(230,230,230);stroke:none"/>
<text x="151" y="575" fill="rgb(0,0,0)" font-family="Arial" font-size="12">7</text>
<text x="171" y="575" fill="rgb(0,0,0)" font-family="Arial" font-size="12">8</text>
<rect width="20" height="520" x="185" y="40" style="fill:rgb(230,230,230);stroke:none"/>
<text x="191" y="575" fill="rgb(0,0,0)" font-family="Arial" font-size="12">9</text>
<text x="207" y="575" fill="rgb(0,0,0)" font-family="Arial" font-size="12">10</text>
<rect width="20" height="520" x="225" y="40" style="fill:rgb(230,230,230);stroke:none"/>
<text x="247" y="575" fill="rgb(0,0,0)" font-family="Arial" font-size="12">12</text>
<rect width="20" height="520" x="265" y="40" style="fill:rgb(230,230,230);stroke:none"/>
<text x="287" y="575" fill="rgb(0,0,0)" font-family="Arial" font-size="12">14</text>
<rect width="20" height="520" x="305" y="40" style="fill:rgb(230,230,230);stroke:none"/>
<text x="327" y="575" fill="rgb(0,0,0)" font-family="Arial" font-size="12">16</text>
<rect width="20" height="520" x="345" y="40" style="fill:rgb(230,230,230);stroke:none"/>
<text x="367" y="575" fill="rgb(0,0,0)" font-family="Arial" font-size="12">18</text>
<rect width="20" height="520" x="385" y="40" style="fill:rgb(230,230,230);stroke:none"/>
<text x="407" y="575" fill="rgb(0,0,0)" font-family="Arial" font-size="12">20</text>
<rect width="20" height="520" x="425" y="40" style="fill:rgb(230,230,230);stroke:none"/>
<text x="447" y="575" fill="rgb(0,0,0)" font-family="Arial" font-size="12">22</text>
<rect width="20" height="520" x="465" y="40" style="fill:rgb(230,230,230);stroke:none"/>
<text x="487" y="575" fill="rgb(0,0,0)" font-family="Arial" font-size="12">24</text>
<rect width="20" height="520" x="505" y="40" style="fill:rgb(230,230,230);stroke:none"/>
<text x="527" y="575" fill="rgb(0,0,0)" font-family="Arial" font-size="12">26</text>
<rect width="20" height="520" x="545" y="40" style="fill:rgb(230,230,230);stroke:none"/>
<text x="567" y="575" fill="rgb(0,0,0)" font-family="Arial" font-size="12">28</text>
<rect width="20" height="520" x="585" y="40" style="fill:rgb(230,230,230);stroke:none"/>
<text x="607" y="575" fill="rgb(0,0,0)" font-family="Arial" font-size="12">30</text>
<rect width="20" height="520" x="625" y="40" style="fill:rgb(230,230,230);stroke:none"/>
<text x="647" y="575" fill="rgb(0,0,0)" font-family="Arial" font-size="12">32</text>
<rect width="20" height="520" x="665" y="40" style="fill:rgb(230,230,230);stroke:none"/>
<text x="687" y="575" fill="rgb(0,0,0)" font-family="Arial" font-size="12">34</text>
<rect width="20" height="520" x="705" y="40" style="fill:rgb(230,230,230);stroke:none"/>
<text x="727" y="575" fill="rgb(0,0,0)" font-family="Arial" font-size="12">36</text>
<rect width="20" height="520" x="745" y="40" style="fill:rgb(230,230,230);stroke:none"/>
<text x="767" y="575" fill="rgb(0,0,0)" font-family="Arial" font-size="12">38</text>
<line x1="45" y1="560" x2="790" y2="560" stroke="rgb(180,180,180)" stroke-width="1"/>
<line x1="45" y1="492" x2="790" y2="492" stroke="rgb(180,180,180)" stroke-width="1"/>
<line x1="45" y1="424" x2="790" y2="424" stroke="rgb(180,180,180)" stroke-width="1"/>
<line x1="45" y1="355" x2="790" y2="355" stroke="rgb(180,180,180)" stroke-width="1"/>
<line x1="45" y1="287" x2="790" y2="287" stroke="rgb(180,180,180)" stroke-width="1"/>
<line x1="45" y1="218" x2="790" y2="218" stroke="rgb(180,180,180)" stroke-width="1"/>
<line x1="45" y1="150" x2="790" y2="150" stroke="rgb(180,180,180)" stroke-width="1"/>
<line x1="45" y1="81" x2="790" y2="81" stroke="rgb(180,180,180)" stroke-width="1"/>
<line x1="55" y1="560" x2="75" y2="560" stroke="rgb(136,34,85)" stroke-width="1"/>
<line x1="75" y1="560" x2="95" y2="560" stroke="rgb(136,34,85)" stroke-width="1"/>
<line x1="95" y1="560" x2="115" y2="560" stroke="rgb(136,34,85)" stroke-width="1"/>
<line x1="115" y1="560" x2="135" y2="560" stroke="rgb(136,34,85)" stroke-width="1"/>
<line x1="135" y1="560" x2="155" y2="560" stroke="rgb(136,34,85)" stroke-width="1"/>
<line x1="155" y1="560" x2="175" y2="560" stroke="rgb(136,34,85)" stroke-width="1"/>
<line x1="175" y1="560" x2="195" y2="560" stroke="rgb(136,34,85)" stroke-width="1"/>
<line x1="195" y1="560" x2="215" y2="560" stroke="rgb(136,34,85)" stroke-width="1"/>
<line x1="215" y1="560" x2="235" y2="560" stroke="rgb(136,34,85)" stroke-width="1"/>
<line x1="235" y1="560" x2="255" y2="560" stroke="rgb(136,34,85)" stroke-width="1"/>
<line x1="255" y1="560" x2="275" y2="560" stroke="rgb(136,34,85)" stroke-width="1"/>
<line x1="275" y1="560" x2="295" y2="560" stroke="rgb(136,34,85)" stroke-width="1"/>
<line x1="295" y1="560" x2="315" y2="560" stroke="rgb(136,34,85)" stroke-width="1"/>
<line x1="315" y1="560" x2="335" y2="560" stroke="rgb(136,34,85)" stroke-width="1"/>
<line x1="335" y1="560" x2="355" y2="560" stroke="rgb(136,34,85)" stroke-width="1"/>
<line x1="355" y1="560" x2="375" y2="560" stroke="rgb(136,34,85)" stroke-width="1"/>
<line x1="375" y1="560" x2="395" y2="560" stroke="rgb(136,34,85)" stroke-width="1"/>
<line x1="395" y1="560" x2="415" y2="560" stroke="rgb(136,34,85)" stroke-width="1"/>
<line x1="415" y1="560" x2="435" y2="560" stroke="rgb(136,34,85)" stroke-width="1"/>
<line x1="435" y1="560" x2="455" y2="560" stroke="rgb(136,34,85)" stroke-width="1"/>
<line x1="455" y1="560" x2="475" y2="560" stroke="rgb(136,34,85)" stroke-width="1"/>
<line x1="475" y1="560" x2="495" y2="560" stroke="rgb(136,34,85)" stroke-width="1"/>
<line x1="495" y1="560" x2="515" y2="560" stroke="rgb(136,34,85)" stroke-width="1"/>
<line x1="515" y1="560" x2="535" y2="560" stroke="rgb(136,34,85)" stroke-width="1"/>
<line x1="535" y1="560" x2="555" y2="559" stroke="rgb(136,34,85)" stroke-width="1"/>
<line x1="555" y1="559" x2="575" y2="559" stroke="rgb(136,34,85)" stroke-width="1"/>
<line x1="575" y1="559" x2="595" y2="558" stroke="rgb(136,34,85)" stroke-width="1"/>
<line x1="595" y1="558" x2="615" y2="558" stroke="rgb(136,34,85)" stroke-width="1"/>
<line x1="615" y1="558" x2="635" y2="557" stroke="rgb(136,34,85)" stroke-width="1"/>
<line x1="635" y1="557" x2="655" y2="556" stroke="rgb(136,34,85)" stroke-width="1"/>
<line x1="655" y1="556" x2="675" y2="554" stroke="rgb(136,34,85)" stroke-width="1"/>
<line x1="675" y1="554" x2="695" y2="551" stroke="rgb(136,34,85)" stroke-width="1"/>
<line x1="695" y1="551" x2="715" y2="546" stroke="rgb(136,34,85)" stroke-width="1"/>
<line x1="715" y1="546" x2="735" y2="531" stroke="rgb(136,34,85)" stroke-width="1"/>
<line x1="735" y1="531" x2="755" y2="474" stroke="rgb(136,34,85)" stroke-width="1"/>
<line x1="755" y1="474" x2="775" y2="40" stroke="rgb(136,34,85)" stroke-width="1"/>
<rect width="183" height="23" x="607" y="40" style="fill:rgb(255,255,255);stroke:none"/>
<rect width="183" height="23" x="607" y="40" rx="0" ry="0" style="fill:none;stroke-width:1;stroke:rgb(192,192,192)"/>
<text x="610" y="55" fill="rgb(136,34,85)" font-family="Arial" font-size="12" font-weight="bold">Average Quality per read</text>
</svg>
