<?xml version="1.0" standalone="no"?>
<!DOCTYPE svg PUBLIC "-//W3C//DTD SVG 1.1//EN" "http://www.w3.org/Graphics/SVG/1.1/DTD/svg11.dtd">
<svg width="800" height="600" version="1.1" xmlns="http://www.w3.org/2000/svg">
<rect width="800" height="600" x="0" y="0" style="fill:rgb(238,238,238);stroke:none"/>
<rect width="800" height="600" x="0" y="0" style="fill:rgb(255,255,255);stroke:none"/>
<text x="2" y="566" fill="rgb(0,0,0)" font-family="Arial" font-size="12">0</text>
<text x="2" y="512" fill="rgb(0,0,0)" font-family="Arial" font-size="12">5000</text>
<text x="2" y="457" fill="rgb(0,0,0)" font-family="Arial" font-size="12">10000</text>
<text x="2" y="403" fill="rgb(0,0,0)" font-family="Arial" font-size="12">15000</text>
<text x="2" y="348" fill="rgb(0,0,0)" font-family="Arial" font-size="12">20000</text>
<text x="2" y="294" fill="rgb(0,0,0)" font-family="Arial" font-size="12">25000</text>
<text x="2" y="239" fill="rgb(0,0,0)" font-family="Arial" font-size="12">30000</text>
<text x="2" y="185" fill="rgb(0,0,0)" font-family="Arial" font-size="12">35000</text>
<text x="2" y="130" fill="rgb(0,0,0)" font-family="Arial" font-size="12">40000</text>
<text x="2" y="76" fill="rgb(0,0,0)" font-family="Arial" font-size="12">45000</text>
<text x="278" y="30" fill="rgb(0,0,0)" font-family="Arial" font-size="12">Quality score distribution over all sequences</text>
<line x1="45" y1="560" x2="790" y2="560" stroke="rgb(0,0,0)" stroke-width="1"/>
<line x1="45" y1="560" x2="45" y2="40" stroke="rgb(0,0,0)" stroke-width="1"/>
<text x="281" y="595" fill="rgb(0,0,0)" font-family="Arial" font-size="12">Mean Sequence Quality (Phred Score)</text>
<text x="52" y="575" fill="rgb(0,0,0)" font-family="Arial" font-size="12">14</text>
<rect width="31" height="520" x="76" y="40" style="fill:rgb(230,230,230);stroke:none"/>
<text x="83" y="575" fill="rgb(0,0,0)" font-family="Arial" font-size="12">15</text>
<text x="114" y="575" fill="rgb(0,0,0)" font-family="Arial" font-size="12">16</text>
<rect width="31" height="520" x="138" y="40" style="fill:rgb(230,230,230);stroke:none"/>
<text x="145" y="575" fill="rgb(0,0,0)" font-family="Arial" font-size="12">17</text>
<text x="176" y="575" fill="rgb(0,0,0)" font-family="Arial" font-size="12">18</text>
<rect width="31" height="520" x="200" y="40" style="fill:rgb(230,230,230);stroke:none"/>
<text x="207" y="575" fill="rgb(0,0,0)" font-family="Arial" font-size="12">19</text>
<text x="238" y="575" fill="rgb(0,0,0)" font-family="Arial" font-size="12">20</text>
<rect width="31" height="520" x="262" y="40" style="fill:rgb(230,230,230);stroke:none"/>
<text x="269" y="575" fill="rgb(0,0,0)" font-family="Arial" font-size="12">21</text>
<text x="300" y="575" fill="rgb(0,0,0)" font-family="Arial" font-size="12">22</text>
<rect width="31" height="520" x="324" y="40" style="fill:rgb(230,230,230);stroke:none"/>
<text x="331" y="575" fill="rgb(0,0,0)" font-family="Arial" font-size="12">23</text>
<text x="362" y="575" fill="rgb(0,0,0)" font-family="Arial" font-size="12">24</text>
<rect width="31" height="520" x="386" y="40" style="fill:rgb(230,230,230);stroke:none"/>
<text x="393" y="575" fill="rgb(0,0,0)" font-family="Arial" font-size="12">25</text>
<text x="424" y="575" fill="rgb(0,0,0)" font-family="Arial" font-size="12">26</text>
<rect width="31" height="520" x="448" y="40" style="fill:rgb(230,230,230);stroke:none"/>
<text x="455" y="575" fill="rgb(0,0,0)" font-family="Arial" font-size="12">27</text>
<text x="486" y="575" fill="rgb(0,0,0)" font-family="Arial" font-size="12">28</text>
<rect width="31" height="520" x="510" y="40" style="fill:rgb(230,230,230);stroke:none"/>
<text x="517" y="575" fill="rgb(0,0,0)" font-family="Arial" font-size="12">29</text>
<text x="548" y="575" fill="rgb(0,0,0)" font-family="Arial" font-size="12">30</text>
<rect width="31" height="520" x="572" y="40" style="fill:rgb(230,230,230);stroke:none"/>
<text x="579" y="575" fill="rgb(0,0,0)" font-family="Arial" font-size="12">31</text>
<text x="610" y="575" fill="rgb(0,0,0)" font-family="Arial" font-size="12">32</text>
<rect width="31" height="520" x="634" y="40" style="fill:rgb(230,230,230);stroke:none"/>
<text x="641" y="575" fill="rgb(0,0,0)" font-family="Arial" font-size="12">33</text>
<text x="672" y="575" fill="rgb(0,0,0)" font-family="Arial" font-size="12">34</text>
<rect width="31" height="520" x="696" y="40" style="fill:rgb(230,230,230);stroke:none"/>
<text x="703" y="575" fill="rgb(0,0,0)" font-family="Arial" font-size="12">35</text>
<text x="734" y="575" fill="rgb(0,0,0)" font-family="Arial" font-size="12">36</text>
<rect width="31" height="520" x="758" y="40" style="fill:rgb(230,230,230);stroke:none"/>
<text x="765" y="575" fill="rgb(0,0,0)" font-family="Arial" font-size="12">37</text>
<line x1="45" y1="560" x2="790" y2="560" stroke="rgb(180,180,180)" stroke-width="1"/>
<line x1="45" y1="506" x2="790" y2="506" stroke="rgb(180,180,180)" stroke-width="1"/>
<line x1="45" y1="451" x2="790" y2="451" stroke="rgb(180,180,180)" stroke-width="1"/>
<line x1="45" y1="397" x2="790" y2="397" stroke="rgb(180,180,180)" stroke-width="1"/>
<line x1="45" y1="342" x2="790" y2="342" stroke="rgb(180,180,180)" stroke-width="1"/>
<line x1="45" y1="288" x2="790" y2="288" stroke="rgb(180,180,180)" stroke-width="1"/>
<line x1="45" y1="233" x2="790" y2="233" stroke="rgb(180,180,180)" stroke-width="1"/>
<line x1="45" y1="179" x2="790" y2="179" stroke="rgb(180,180,180)" stroke-width="1"/>
<line x1="45" y1="124" x2="790" y2="124" stroke="rgb(180,180,180)" stroke-width="1"/>
<line x1="45" y1="70" x2="790" y2="70" stroke="rgb(180,180,180)" stroke-width="1"/>
<line x1="60" y1="560" x2="91" y2="560" stroke="rgb(136,34,85)" stroke-width="1"/>
<line x1="91" y1="560" x2="122" y2="560" stroke="rgb(136,34,85)" stroke-width="1"/>
<line x1="122" y1="560" x2="153" y2="560" stroke="rgb(136,34,85)" stroke-width="1"/>
<line x1="153" y1="560" x2="184" y2="560" stroke="rgb(136,34,85)" stroke-width="1"/>
<line x1="184" y1="560" x2="215" y2="560" stroke="rgb(136,34,85)" stroke-width="1"/>
<line x1="215" y1="560" x2="246" y2="560" stroke="rgb(136,34,85)" stroke-width="1"/>
<line x1="246" y1="560" x2="277" y2="560" stroke="rgb(136,34,85)" stroke-width="1"/>
<line x1="277" y1="560" x2="308" y2="560" stroke="rgb(136,34,85)" stroke-width="1"/>
<line x1="308" y1="560" x2="339" y2="560" stroke="rgb(136,34,85)" stroke-width="1"/>
<line x1="339" y1="560" x2="370" y2="560" stroke="rgb(136,34,85)" stroke-width="1"/>
<line x1="370" y1="560" x2="401" y2="560" stroke="rgb(136,34,85)" stroke-width="1"/>
<line x1="401" y1="560" x2="432" y2="559" stroke="rgb(136,34,85)" stroke-width="1"/>
<line x1="432" y1="559" x2="463" y2="558" stroke="rgb(136,34,85)" stroke-width="1"/>
<line x1="463" y1="558" x2="494" y2="558" stroke="rgb(136,34,85)" stroke-width="1"/>
<line x1="494" y1="558" x2="525" y2="556" stroke="rgb(136,34,85)" stroke-width="1"/>
<line x1="525" y1="556" x2="556" y2="555" stroke="rgb(136,34,85)" stroke-width="1"/>
<line x1="556" y1="555" x2="587" y2="551" stroke="rgb(136,34,85)" stroke-width="1"/>
<line x1="587" y1="551" x2="618" y2="547" stroke="rgb(136,34,85)" stroke-width="1"/>
<line x1="618" y1="547" x2="649" y2="541" stroke="rgb(136,34,85)" stroke-width="1"/>
<line x1="649" y1="541" x2="680" y2="527" stroke="rgb(136,34,85)" stroke-width="1"/>
<line x1="680" y1="527" x2="711" y2="481" stroke="rgb(136,34,85)" stroke-width="1"/>
<line x1="711" y1="481" x2="742" y2="40" stroke="rgb(136,34,85)" stroke-width="1"/>
<line x1="742" y1="40" x2="773" y2="514" stroke="rgb(136,34,85)" stroke-width="1"/>
<rect width="183" height="23" x="607" y="40" style="fill:rgb(255,255,255);stroke:none"/>
<rect width="183" height="23" x="607" y="40" rx="0" ry="0" style="fill:none;stroke-width:1;stroke:rgb(192,192,192)"/>
<text x="610" y="55" fill="rgb(136,34,85)" font-family="Arial" font-size="12" font-weight="bold">Average Quality per read</text>
</svg>
