<?xml version="1.0" standalone="no"?>
<!DOCTYPE svg PUBLIC "-//W3C//DTD SVG 1.1//EN" "http://www.w3.org/Graphics/SVG/1.1/DTD/svg11.dtd">
<svg width="800" height="600" version="1.1" xmlns="http://www.w3.org/2000/svg">
<rect width="800" height="600" x="0" y="0" style="fill:rgb(238,238,238);stroke:none"/>
<rect width="800" height="600" x="0" y="0" style="fill:rgb(255,255,255);stroke:none"/>
<text x="2" y="566" fill="rgb(0,0,0)" font-family="Arial" font-size="12">0</text>
<text x="2" y="512" fill="rgb(0,0,0)" font-family="Arial" font-size="12">10000</text>
<text x="2" y="457" fill="rgb(0,0,0)" font-family="Arial" font-size="12">20000</text>
<text x="2" y="402" fill="rgb(0,0,0)" font-family="Arial" font-size="12">30000</text>
<text x="2" y="347" fill="rgb(0,0,0)" font-family="Arial" font-size="12">40000</text>
<text x="2" y="292" fill="rgb(0,0,0)" font-family="Arial" font-size="12">50000</text>
<text x="2" y="238" fill="rgb(0,0,0)" font-family="Arial" font-size="12">60000</text>
<text x="2" y="183" fill="rgb(0,0,0)" font-family="Arial" font-size="12">70000</text>
<text x="2" y="128" fill="rgb(0,0,0)" font-family="Arial" font-size="12">80000</text>
<text x="2" y="73" fill="rgb(0,0,0)" font-family="Arial" font-size="12">90000</text>
<text x="254" y="30" fill="rgb(0,0,0)" font-family="Arial" font-size="12">Distribution of sequence lengths over all sequences</text>
<line x1="45" y1="560" x2="790" y2="560" stroke="rgb(0,0,0)" stroke-width="1"/>
<line x1="45" y1="560" x2="45" y2="40" stroke="rgb(0,0,0)" stroke-width="1"/>
<text x="330" y="595" fill="rgb(0,0,0)" font-family="Arial" font-size="12">Sequence Length (bp)</text>
<text x="35" y="575" fill="rgb(0,0,0)" font-family="Arial" font-size="12">45-49</text>
<rect width="17" height="520" x="62" y="40" style="fill:rgb(230,230,230);stroke:none"/>
<rect width="17" height="520" x="96" y="40" style="fill:rgb(230,230,230);stroke:none"/>
<text x="86" y="575" fill="rgb(0,0,0)" font-family="Arial" font-size="12">60-64</text>
<rect width="17" height="520" x="130" y="40" style="fill:rgb(230,230,230);stroke:none"/>
<text x="137" y="575" fill="rgb(0,0,0)" font-family="Arial" font-size="12">75-79</text>
<rect width="17" height="520" x="164" y="40" style="fill:rgb(230,230,230);stroke:none"/>
<rect width="17" height="520" x="198" y="40" style="fill:rgb(230,230,230);stroke:none"/>
<text x="188" y="575" fill="rgb(0,0,0)" font-family="Arial" font-size="12">90-94</text>
<rect width="17" height="520" x="232" y="40" style="fill:rgb(230,230,230);stroke:none"/>
<text x="231" y="575" fill="rgb(0,0,0)" font-family="Arial" font-size="12">105-109</text>
<rect width="17" height="520" x="266" y="40" style="fill:rgb(230,230,230);stroke:none"/>
<rect width="17" height="520" x="300" y="40" style="fill:rgb(230,230,230);stroke:none"/>
<text x="299" y="575" fill="rgb(0,0,0)" font-family="Arial" font-size="12">125-129</text>
<rect width="17" height="520" x="334" y="40" style="fill:rgb(230,230,230);stroke:none"/>
<rect width="17" height="520" x="368" y="40" style="fill:rgb(230,230,230);stroke:none"/>
<text x="367" y="575" fill="rgb(0,0,0)" font-family="Arial" font-size="12">145-149</text>
<rect width="17" height="520" x="402" y="40" style="fill:rgb(230,230,230);stroke:none"/>
<rect width="17" height="520" x="436" y="40" style="fill:rgb(230,230,230);stroke:none"/>
<text x="435" y="575" fill="rgb(0,0,0)" font-family="Arial" font-size="12">165-169</text>
<rect width="17" height="520" x="470" y="40" style="fill:rgb(230,230,230);stroke:none"/>
<rect width="17" height="520" x="504" y="40" style="fill:rgb(230,230,230);stroke:none"/>
<text x="503" y="575" fill="rgb(0,0,0)" font-family="Arial" font-size="12">185-189</text>
<rect width="17" height="520" x="538" y="40" style="fill:rgb(230,230,230);stroke:none"/>
<rect width="17" height="520" x="572" y="40" style="fill:rgb(230,230,230);stroke:none"/>
<text x="571" y="575" fill="rgb(0,0,0)" font-family="Arial" font-size="12">205-209</text>
<rect width="17" height="520" x="606" y="40" style="fill:rgb(230,230,230);stroke:none"/>
<rect width="17" height="520" x="640" y="40" style="fill:rgb(230,230,230);stroke:none"/>
<text x="639" y="575" fill="rgb(0,0,0)" font-family="Arial" font-size="12">225-229</text>
<rect width="17" height="520" x="674" y="40" style="fill:rgb(230,230,230);stroke:none"/>
<rect width="17" height="520" x="708" y="40" style="fill:rgb(230,230,230);stroke:none"/>
<text x="707" y="575" fill="rgb(0,0,0)" font-family="Arial" font-size="12">245-249</text>
<rect width="17" height="520" x="742" y="40" style="fill:rgb(230,230,230);stroke:none"/>
<line x1="45" y1="560" x2="790" y2="560" stroke="rgb(180,180,180)" stroke-width="1"/>
<line x1="45" y1="506" x2="790" y2="506" stroke="rgb(180,180,180)" stroke-width="1"/>
<line x1="45" y1="451" x2="790" y2="451" stroke="rgb(180,180,180)" stroke-width="1"/>
<line x1="45" y1="396" x2="790" y2="396" stroke="rgb(180,180,180)" stroke-width="1"/>
<line x1="45" y1="341" x2="790" y2="341" stroke="rgb(180,180,180)" stroke-width="1"/>
<line x1="45" y1="286" x2="790" y2="286" stroke="rgb(180,180,180)" stroke-width="1"/>
<line x1="45" y1="232" x2="790" y2="232" stroke="rgb(180,180,180)" stroke-width="1"/>
<line x1="45" y1="177" x2="790" y2="177" stroke="rgb(180,180,180)" stroke-width="1"/>
<line x1="45" y1="122" x2="790" y2="122" stroke="rgb(180,180,180)" stroke-width="1"/>
<line x1="45" y1="67" x2="790" y2="67" stroke="rgb(180,180,180)" stroke-width="1"/>
<line x1="53" y1="560" x2="70" y2="560" stroke="rgb(136,34,85)" stroke-width="1"/>
<line x1="70" y1="560" x2="87" y2="560" stroke="rgb(136,34,85)" stroke-width="1"/>
<line x1="87" y1="560" x2="104" y2="560" stroke="rgb(136,34,85)" stroke-width="1"/>
<line x1="104" y1="560" x2="121" y2="560" stroke="rgb(136,34,85)" stroke-width="1"/>
<line x1="121" y1="560" x2="138" y2="560" stroke="rgb(136,34,85)" stroke-width="1"/>
<line x1="138" y1="560" x2="155" y2="560" stroke="rgb(136,34,85)" stroke-width="1"/>
<line x1="155" y1="560" x2="172" y2="560" stroke="rgb(136,34,85)" stroke-width="1"/>
<line x1="172" y1="560" x2="189" y2="560" stroke="rgb(136,34,85)" stroke-width="1"/>
<line x1="189" y1="560" x2="206" y2="560" stroke="rgb(136,34,85)" stroke-width="1"/>
<line x1="206" y1="560" x2="223" y2="560" stroke="rgb(136,34,85)" stroke-width="1"/>
<line x1="223" y1="560" x2="240" y2="560" stroke="rgb(136,34,85)" stroke-width="1"/>
<line x1="240" y1="560" x2="257" y2="560" stroke="rgb(136,34,85)" stroke-width="1"/>
<line x1="257" y1="560" x2="274" y2="560" stroke="rgb(136,34,85)" stroke-width="1"/>
<line x1="274" y1="560" x2="291" y2="560" stroke="rgb(136,34,85)" stroke-width="1"/>
<line x1="291" y1="560" x2="308" y2="560" stroke="rgb(136,34,85)" stroke-width="1"/>
<line x1="308" y1="560" x2="325" y2="560" stroke="rgb(136,34,85)" stroke-width="1"/>
<line x1="325" y1="560" x2="342" y2="560" stroke="rgb(136,34,85)" stroke-width="1"/>
<line x1="342" y1="560" x2="359" y2="560" stroke="rgb(136,34,85)" stroke-width="1"/>
<line x1="359" y1="560" x2="376" y2="560" stroke="rgb(136,34,85)" stroke-width="1"/>
<line x1="376" y1="560" x2="393" y2="560" stroke="rgb(136,34,85)" stroke-width="1"/>
<line x1="393" y1="560" x2="410" y2="560" stroke="rgb(136,34,85)" stroke-width="1"/>
<line x1="410" y1="560" x2="427" y2="560" stroke="rgb(136,34,85)" stroke-width="1"/>
<line x1="427" y1="560" x2="444" y2="560" stroke="rgb(136,34,85)" stroke-width="1"/>
<line x1="444" y1="560" x2="461" y2="560" stroke="rgb(136,34,85)" stroke-width="1"/>
<line x1="461" y1="560" x2="478" y2="560" stroke="rgb(136,34,85)" stroke-width="1"/>
<line x1="478" y1="560" x2="495" y2="560" stroke="rgb(136,34,85)" stroke-width="1"/>
<line x1="495" y1="560" x2="512" y2="560" stroke="rgb(136,34,85)" stroke-width="1"/>
<line x1="512" y1="560" x2="529" y2="560" stroke="rgb(136,34,85)" stroke-width="1"/>
<line x1="529" y1="560" x2="546" y2="560" stroke="rgb(136,34,85)" stroke-width="1"/>
<line x1="546" y1="560" x2="563" y2="560" stroke="rgb(136,34,85)" stroke-width="1"/>
<line x1="563" y1="560" x2="580" y2="560" stroke="rgb(136,34,85)" stroke-width="1"/>
<line x1="580" y1="560" x2="597" y2="40" stroke="rgb(136,34,85)" stroke-width="1"/>
<line x1="597" y1="40" x2="614" y2="557" stroke="rgb(136,34,85)" stroke-width="1"/>
<line x1="614" y1="557" x2="631" y2="560" stroke="rgb(136,34,85)" stroke-width="1"/>
<line x1="631" y1="560" x2="648" y2="560" stroke="rgb(136,34,85)" stroke-width="1"/>
<line x1="648" y1="560" x2="665" y2="560" stroke="rgb(136,34,85)" stroke-width="1"/>
<line x1="665" y1="560" x2="682" y2="560" stroke="rgb(136,34,85)" stroke-width="1"/>
<line x1="682" y1="560" x2="699" y2="560" stroke="rgb(136,34,85)" stroke-width="1"/>
<line x1="699" y1="560" x2="716" y2="560" stroke="rgb(136,34,85)" stroke-width="1"/>
<line x1="716" y1="560" x2="733" y2="544" stroke="rgb(136,34,85)" stroke-width="1"/>
<line x1="733" y1="544" x2="750" y2="554" stroke="rgb(136,34,85)" stroke-width="1"/>
<rect width="130" height="23" x="660" y="40" style="fill:rgb(255,255,255);stroke:none"/>
<rect width="130" height="23" x="660" y="40" rx="0" ry="0" style="fill:none;stroke-width:1;stroke:rgb(192,192,192)"/>
<text x="663" y="55" fill="rgb(136,34,85)" font-family="Arial" font-size="12" font-weight="bold">Sequence Length</text>
</svg>
