<?xml version="1.0" standalone="no"?>
<!DOCTYPE svg PUBLIC "-//W3C//DTD SVG 1.1//EN" "http://www.w3.org/Graphics/SVG/1.1/DTD/svg11.dtd">
<svg width="800" height="600" version="1.1" xmlns="http://www.w3.org/2000/svg">
<rect width="800" height="600" x="0" y="0" style="fill:rgb(238,238,238);stroke:none"/>
<rect width="800" height="600" x="0" y="0" style="fill:rgb(255,255,255);stroke:none"/>
<text x="2" y="566" fill="rgb(0,0,0)" font-family="Arial" font-size="12">0</text>
<text x="2" y="489" fill="rgb(0,0,0)" font-family="Arial" font-size="12">5000</text>
<text x="2" y="412" fill="rgb(0,0,0)" font-family="Arial" font-size="12">10000</text>
<text x="2" y="335" fill="rgb(0,0,0)" font-family="Arial" font-size="12">15000</text>
<text x="2" y="257" fill="rgb(0,0,0)" font-family="Arial" font-size="12">20000</text>
<text x="2" y="180" fill="rgb(0,0,0)" font-family="Arial" font-size="12">25000</text>
<text x="2" y="103" fill="rgb(0,0,0)" font-family="Arial" font-size="12">30000</text>
<text x="278" y="30" fill="rgb(0,0,0)" font-family="Arial" font-size="12">Quality score distribution over all sequences</text>
<line x1="45" y1="560" x2="790" y2="560" stroke="rgb(0,0,0)" stroke-width="1"/>
<line x1="45" y1="560" x2="45" y2="40" stroke="rgb(0,0,0)" stroke-width="1"/>
<text x="281" y="595" fill="rgb(0,0,0)" font-family="Arial" font-size="12">Mean Sequence Quality (Phred Score)</text>
<text x="53" y="575" fill="rgb(0,0,0)" font-family="Arial" font-size="12">15</text>
<rect width="32" height="520" x="77" y="40" style="fill:rgb(230,230,230);stroke:none"/>
<text x="85" y="575" fill="rgb(0,0,0)" font-family="Arial" font-size="12">16</text>
<text x="117" y="575" fill="rgb(0,0,0)" font-family="Arial" font-size="12">17</text>
<rect width="32" height="520" x="141" y="40" style="fill:rgb(230,230,230);stroke:none"/>
<text x="149" y="575" fill="rgb(0,0,0)" font-family="Arial" font-size="12">18</text>
<text x="181" y="575" fill="rgb(0,0,0)" font-family="Arial" font-size="12">19</text>
<rect width="32" height="520" x="205" y="40" style="fill:rgb(230,230,230);stroke:none"/>
<text x="213" y="575" fill="rgb(0,0,0)" font-family="Arial" font-size="12">20</text>
<text x="245" y="575" fill="rgb(0,0,0)" font-family="Arial" font-size="12">21</text>
<rect width="32" height="520" x="269" y="40" style="fill:rgb(230,230,230);stroke:none"/>
<text x="277" y="575" fill="rgb(0,0,0)" font-family="Arial" font-size="12">22</text>
<text x="309" y="575" fill="rgb(0,0,0)" font-family="Arial" font-size="12">23</text>
<rect width="32" height="520" x="333" y="40" style="fill:rgb(230,230,230);stroke:none"/>
<text x="341" y="575" fill="rgb(0,0,0)" font-family="Arial" font-size="12">24</text>
<text x="373" y="575" fill="rgb(0,0,0)" font-family="Arial" font-size="12">25</text>
<rect width="32" height="520" x="397" y="40" style="fill:rgb(230,230,230);stroke:none"/>
<text x="405" y="575" fill="rgb(0,0,0)" font-family="Arial" font-size="12">26</text>
<text x="437" y="575" fill="rgb(0,0,0)" font-family="Arial" font-size="12">27</text>
<rect width="32" height="520" x="461" y="40" style="fill:rgb(230,230,230);stroke:none"/>
<text x="469" y="575" fill="rgb(0,0,0)" font-family="Arial" font-size="12">28</text>
<text x="501" y="575" fill="rgb(0,0,0)" font-family="Arial" font-size="12">29</text>
<rect width="32" height="520" x="525" y="40" style="fill:rgb(230,230,230);stroke:none"/>
<text x="533" y="575" fill="rgb(0,0,0)" font-family="Arial" font-size="12">30</text>
<text x="565" y="575" fill="rgb(0,0,0)" font-family="Arial" font-size="12">31</text>
<rect width="32" height="520" x="589" y="40" style="fill:rgb(230,230,230);stroke:none"/>
<text x="597" y="575" fill="rgb(0,0,0)" font-family="Arial" font-size="12">32</text>
<text x="629" y="575" fill="rgb(0,0,0)" font-family="Arial" font-size="12">33</text>
<rect width="32" height="520" x="653" y="40" style="fill:rgb(230,230,230);stroke:none"/>
<text x="661" y="575" fill="rgb(0,0,0)" font-family="Arial" font-size="12">34</text>
<text x="693" y="575" fill="rgb(0,0,0)" font-family="Arial" font-size="12">35</text>
<rect width="32" height="520" x="717" y="40" style="fill:rgb(230,230,230);stroke:none"/>
<text x="725" y="575" fill="rgb(0,0,0)" font-family="Arial" font-size="12">36</text>
<text x="757" y="575" fill="rgb(0,0,0)" font-family="Arial" font-size="12">37</text>
<line x1="45" y1="560" x2="790" y2="560" stroke="rgb(180,180,180)" stroke-width="1"/>
<line x1="45" y1="483" x2="790" y2="483" stroke="rgb(180,180,180)" stroke-width="1"/>
<line x1="45" y1="406" x2="790" y2="406" stroke="rgb(180,180,180)" stroke-width="1"/>
<line x1="45" y1="329" x2="790" y2="329" stroke="rgb(180,180,180)" stroke-width="1"/>
<line x1="45" y1="251" x2="790" y2="251" stroke="rgb(180,180,180)" stroke-width="1"/>
<line x1="45" y1="174" x2="790" y2="174" stroke="rgb(180,180,180)" stroke-width="1"/>
<line x1="45" y1="97" x2="790" y2="97" stroke="rgb(180,180,180)" stroke-width="1"/>
<line x1="61" y1="560" x2="93" y2="560" stroke="rgb(136,34,85)" stroke-width="1"/>
<line x1="93" y1="560" x2="125" y2="560" stroke="rgb(136,34,85)" stroke-width="1"/>
<line x1="125" y1="560" x2="157" y2="560" stroke="rgb(136,34,85)" stroke-width="1"/>
<line x1="157" y1="560" x2="189" y2="560" stroke="rgb(136,34,85)" stroke-width="1"/>
<line x1="189" y1="560" x2="221" y2="560" stroke="rgb(136,34,85)" stroke-width="1"/>
<line x1="221" y1="560" x2="253" y2="560" stroke="rgb(136,34,85)" stroke-width="1"/>
<line x1="253" y1="560" x2="285" y2="560" stroke="rgb(136,34,85)" stroke-width="1"/>
<line x1="285" y1="560" x2="317" y2="560" stroke="rgb(136,34,85)" stroke-width="1"/>
<line x1="317" y1="560" x2="349" y2="560" stroke="rgb(136,34,85)" stroke-width="1"/>
<line x1="349" y1="560" x2="381" y2="560" stroke="rgb(136,34,85)" stroke-width="1"/>
<line x1="381" y1="560" x2="413" y2="559" stroke="rgb(136,34,85)" stroke-width="1"/>
<line x1="413" y1="559" x2="445" y2="559" stroke="rgb(136,34,85)" stroke-width="1"/>
<line x1="445" y1="559" x2="477" y2="558" stroke="rgb(136,34,85)" stroke-width="1"/>
<line x1="477" y1="558" x2="509" y2="556" stroke="rgb(136,34,85)" stroke-width="1"/>
<line x1="509" y1="556" x2="541" y2="554" stroke="rgb(136,34,85)" stroke-width="1"/>
<line x1="541" y1="554" x2="573" y2="551" stroke="rgb(136,34,85)" stroke-width="1"/>
<line x1="573" y1="551" x2="605" y2="547" stroke="rgb(136,34,85)" stroke-width="1"/>
<line x1="605" y1="547" x2="637" y2="539" stroke="rgb(136,34,85)" stroke-width="1"/>
<line x1="637" y1="539" x2="669" y2="526" stroke="rgb(136,34,85)" stroke-width="1"/>
<line x1="669" y1="526" x2="701" y2="483" stroke="rgb(136,34,85)" stroke-width="1"/>
<line x1="701" y1="483" x2="733" y2="40" stroke="rgb(136,34,85)" stroke-width="1"/>
<line x1="733" y1="40" x2="765" y2="498" stroke="rgb(136,34,85)" stroke-width="1"/>
<rect width="183" height="23" x="607" y="40" style="fill:rgb(255,255,255);stroke:none"/>
<rect width="183" height="23" x="607" y="40" rx="0" ry="0" style="fill:none;stroke-width:1;stroke:rgb(192,192,192)"/>
<text x="610" y="55" fill="rgb(136,34,85)" font-family="Arial" font-size="12" font-weight="bold">Average Quality per read</text>
</svg>
