<?xml version="1.0" standalone="no"?>
<!DOCTYPE svg PUBLIC "-//W3C//DTD SVG 1.1//EN" "http://www.w3.org/Graphics/SVG/1.1/DTD/svg11.dtd">
<svg width="800" height="600" version="1.1" xmlns="http://www.w3.org/2000/svg">
<rect width="800" height="600" x="0" y="0" style="fill:rgb(238,238,238);stroke:none"/>
<rect width="800" height="600" x="0" y="0" style="fill:rgb(255,255,255);stroke:none"/>
<text x="2" y="566" fill="rgb(0,0,0)" font-family="Arial" font-size="12">0</text>
<text x="2" y="492" fill="rgb(0,0,0)" font-family="Arial" font-size="12">5000</text>
<text x="2" y="417" fill="rgb(0,0,0)" font-family="Arial" font-size="12">10000</text>
<text x="2" y="342" fill="rgb(0,0,0)" font-family="Arial" font-size="12">15000</text>
<text x="2" y="267" fill="rgb(0,0,0)" font-family="Arial" font-size="12">20000</text>
<text x="2" y="193" fill="rgb(0,0,0)" font-family="Arial" font-size="12">25000</text>
<text x="2" y="118" fill="rgb(0,0,0)" font-family="Arial" font-size="12">30000</text>
<text x="278" y="30" fill="rgb(0,0,0)" font-family="Arial" font-size="12">Quality score distribution over all sequences</text>
<line x1="45" y1="560" x2="790" y2="560" stroke="rgb(0,0,0)" stroke-width="1"/>
<line x1="45" y1="560" x2="45" y2="40" stroke="rgb(0,0,0)" stroke-width="1"/>
<text x="281" y="595" fill="rgb(0,0,0)" font-family="Arial" font-size="12">Mean Sequence Quality (Phred Score)</text>
<text x="53" y="575" fill="rgb(0,0,0)" font-family="Arial" font-size="12">16</text>
<rect width="33" height="520" x="78" y="40" style="fill:rgb(230,230,230);stroke:none"/>
<text x="86" y="575" fill="rgb(0,0,0)" font-family="Arial" font-size="12">17</text>
<text x="119" y="575" fill="rgb(0,0,0)" font-family="Arial" font-size="12">18</text>
<rect width="33" height="520" x="144" y="40" style="fill:rgb(230,230,230);stroke:none"/>
<text x="152" y="575" fill="rgb(0,0,0)" font-family="Arial" font-size="12">19</text>
<text x="185" y="575" fill="rgb(0,0,0)" font-family="Arial" font-size="12">20</text>
<rect width="33" height="520" x="210" y="40" style="fill:rgb(230,230,230);stroke:none"/>
<text x="218" y="575" fill="rgb(0,0,0)" font-family="Arial" font-size="12">21</text>
<text x="251" y="575" fill="rgb(0,0,0)" font-family="Arial" font-size="12">22</text>
<rect width="33" height="520" x="276" y="40" style="fill:rgb(230,230,230);stroke:none"/>
<text x="284" y="575" fill="rgb(0,0,0)" font-family="Arial" font-size="12">23</text>
<text x="317" y="575" fill="rgb(0,0,0)" font-family="Arial" font-size="12">24</text>
<rect width="33" height="520" x="342" y="40" style="fill:rgb(230,230,230);stroke:none"/>
<text x="350" y="575" fill="rgb(0,0,0)" font-family="Arial" font-size="12">25</text>
<text x="383" y="575" fill="rgb(0,0,0)" font-family="Arial" font-size="12">26</text>
<rect width="33" height="520" x="408" y="40" style="fill:rgb(230,230,230);stroke:none"/>
<text x="416" y="575" fill="rgb(0,0,0)" font-family="Arial" font-size="12">27</text>
<text x="449" y="575" fill="rgb(0,0,0)" font-family="Arial" font-size="12">28</text>
<rect width="33" height="520" x="474" y="40" style="fill:rgb(230,230,230);stroke:none"/>
<text x="482" y="575" fill="rgb(0,0,0)" font-family="Arial" font-size="12">29</text>
<text x="515" y="575" fill="rgb(0,0,0)" font-family="Arial" font-size="12">30</text>
<rect width="33" height="520" x="540" y="40" style="fill:rgb(230,230,230);stroke:none"/>
<text x="548" y="575" fill="rgb(0,0,0)" font-family="Arial" font-size="12">31</text>
<text x="581" y="575" fill="rgb(0,0,0)" font-family="Arial" font-size="12">32</text>
<rect width="33" height="520" x="606" y="40" style="fill:rgb(230,230,230);stroke:none"/>
<text x="614" y="575" fill="rgb(0,0,0)" font-family="Arial" font-size="12">33</text>
<text x="647" y="575" fill="rgb(0,0,0)" font-family="Arial" font-size="12">34</text>
<rect width="33" height="520" x="672" y="40" style="fill:rgb(230,230,230);stroke:none"/>
<text x="680" y="575" fill="rgb(0,0,0)" font-family="Arial" font-size="12">35</text>
<text x="713" y="575" fill="rgb(0,0,0)" font-family="Arial" font-size="12">36</text>
<rect width="33" height="520" x="738" y="40" style="fill:rgb(230,230,230);stroke:none"/>
<text x="746" y="575" fill="rgb(0,0,0)" font-family="Arial" font-size="12">37</text>
<line x1="45" y1="560" x2="790" y2="560" stroke="rgb(180,180,180)" stroke-width="1"/>
<line x1="45" y1="486" x2="790" y2="486" stroke="rgb(180,180,180)" stroke-width="1"/>
<line x1="45" y1="411" x2="790" y2="411" stroke="rgb(180,180,180)" stroke-width="1"/>
<line x1="45" y1="336" x2="790" y2="336" stroke="rgb(180,180,180)" stroke-width="1"/>
<line x1="45" y1="261" x2="790" y2="261" stroke="rgb(180,180,180)" stroke-width="1"/>
<line x1="45" y1="187" x2="790" y2="187" stroke="rgb(180,180,180)" stroke-width="1"/>
<line x1="45" y1="112" x2="790" y2="112" stroke="rgb(180,180,180)" stroke-width="1"/>
<line x1="61" y1="560" x2="94" y2="560" stroke="rgb(136,34,85)" stroke-width="1"/>
<line x1="94" y1="560" x2="127" y2="560" stroke="rgb(136,34,85)" stroke-width="1"/>
<line x1="127" y1="560" x2="160" y2="560" stroke="rgb(136,34,85)" stroke-width="1"/>
<line x1="160" y1="560" x2="193" y2="560" stroke="rgb(136,34,85)" stroke-width="1"/>
<line x1="193" y1="560" x2="226" y2="560" stroke="rgb(136,34,85)" stroke-width="1"/>
<line x1="226" y1="560" x2="259" y2="560" stroke="rgb(136,34,85)" stroke-width="1"/>
<line x1="259" y1="560" x2="292" y2="560" stroke="rgb(136,34,85)" stroke-width="1"/>
<line x1="292" y1="560" x2="325" y2="560" stroke="rgb(136,34,85)" stroke-width="1"/>
<line x1="325" y1="560" x2="358" y2="560" stroke="rgb(136,34,85)" stroke-width="1"/>
<line x1="358" y1="560" x2="391" y2="560" stroke="rgb(136,34,85)" stroke-width="1"/>
<line x1="391" y1="560" x2="424" y2="559" stroke="rgb(136,34,85)" stroke-width="1"/>
<line x1="424" y1="559" x2="457" y2="558" stroke="rgb(136,34,85)" stroke-width="1"/>
<line x1="457" y1="558" x2="490" y2="557" stroke="rgb(136,34,85)" stroke-width="1"/>
<line x1="490" y1="557" x2="523" y2="555" stroke="rgb(136,34,85)" stroke-width="1"/>
<line x1="523" y1="555" x2="556" y2="552" stroke="rgb(136,34,85)" stroke-width="1"/>
<line x1="556" y1="552" x2="589" y2="547" stroke="rgb(136,34,85)" stroke-width="1"/>
<line x1="589" y1="547" x2="622" y2="541" stroke="rgb(136,34,85)" stroke-width="1"/>
<line x1="622" y1="541" x2="655" y2="528" stroke="rgb(136,34,85)" stroke-width="1"/>
<line x1="655" y1="528" x2="688" y2="485" stroke="rgb(136,34,85)" stroke-width="1"/>
<line x1="688" y1="485" x2="721" y2="40" stroke="rgb(136,34,85)" stroke-width="1"/>
<line x1="721" y1="40" x2="754" y2="505" stroke="rgb(136,34,85)" stroke-width="1"/>
<rect width="183" height="23" x="607" y="40" style="fill:rgb(255,255,255);stroke:none"/>
<rect width="183" height="23" x="607" y="40" rx="0" ry="0" style="fill:none;stroke-width:1;stroke:rgb(192,192,192)"/>
<text x="610" y="55" fill="rgb(136,34,85)" font-family="Arial" font-size="12" font-weight="bold">Average Quality per read</text>
</svg>
